<svg version="1.1" xmlns="http://www.w3.org/2000/svg" xmlns:xlink="http://www.w3.org/1999/xlink" x="0px" y="0px" viewBox="0 0 40 40" style="enable-background:new 0 0 40 40;" xml:space="preserve">
<g>
	<polygon style="fill:#FFC49C;" points="0.486,31.5 0.486,18.5 12.486,18.5 12.486,11.5 27.486,11.5 27.486,20.5 39.486,20.5 
		39.486,31.5 	"></polygon>
	<path style="fill:#B08159;" d="M26.986,12v8v1h1h11v10h-38V19h11h1v-1v-6H26.986 M27.986,11h-16v7h-12v14h40V20h-12V11L27.986,11z"></path>
</g>
<g>
	<path style="fill:#99C99E;" d="M27.5,20.5v-3h11.152c0.459,0,0.833,0.374,0.833,0.833V20.5H27.5z"></path>
	<path style="fill:#5E9C76;" d="M38.652,18c0.181,0,0.333,0.153,0.333,0.333V20H28v-2H38.652 M38.652,17H27v4h12.986v-2.667
		C39.986,17.6,39.386,17,38.652,17L38.652,17z"></path>
</g>
<g>
	<path style="fill:#8BB7F0;" d="M0.486,18.5v-2.167c0-0.459,0.374-0.833,0.833-0.833H12.5v3H0.486z"></path>
	<path style="fill:#4E7AB5;" d="M12,16v2H0.986v-1.667C0.986,16.153,1.138,16,1.319,16H12 M13,15H1.319
		c-0.733,0-1.333,0.6-1.333,1.333V19H13V15L13,15z"></path>
</g>
<g>
	<path style="fill:#F78F8F;" d="M12.486,11.5V9.333c0-0.459,0.374-0.833,0.833-0.833h13.333c0.459,0,0.833,0.374,0.833,0.833V11.5
		H12.486z"></path>
	<path style="fill:#C74343;" d="M26.652,9c0.181,0,0.333,0.153,0.333,0.333V11h-14V9.333C12.986,9.15,13.135,9,13.319,9H26.652
		 M26.652,8H13.319c-0.736,0-1.333,0.597-1.333,1.333V12h16V9.333C27.986,8.6,27.386,8,26.652,8L26.652,8z"></path>
</g>
<path style="fill:#B08159;" d="M21,15v8h-1.333v-6.156c-0.219,0.156-0.329,0.289-0.581,0.398s-0.43,0.206-0.753,0.289v-1.396
	c0.201-0.066,0.286-0.135,0.474-0.208c0.188-0.073,0.372-0.154,0.555-0.245c0.182-0.09,0.367-0.191,0.552-0.302
	s0.378-0.238,0.576-0.38H21z"></path>
<path style="fill:#B08159;" d="M9,29H4v-0.609c0-0.249,0.036-0.482,0.106-0.7c0.069-0.217,0.164-0.422,0.283-0.615
	c0.119-0.192,0.258-0.373,0.417-0.543c0.158-0.17,0.331-0.335,0.511-0.494c0.181-0.159,0.367-0.313,0.556-0.461
	c0.189-0.148,0.375-0.297,0.556-0.447c0.169-0.143,0.325-0.283,0.467-0.42c0.142-0.137,0.261-0.279,0.361-0.425
	c0.1-0.146,0.178-0.301,0.233-0.464c0.056-0.163,0.083-0.34,0.083-0.529c0-0.209-0.033-0.39-0.097-0.546
	c-0.064-0.156-0.156-0.285-0.272-0.39s-0.256-0.183-0.414-0.236c-0.158-0.053-0.333-0.08-0.522-0.08
	c-0.325,0-0.658,0.075-0.994,0.225S4.611,22.643,4.3,22.942v-1.224c0.164-0.121,0.328-0.226,0.494-0.316
	c0.167-0.09,0.339-0.165,0.517-0.225c0.178-0.06,0.364-0.105,0.561-0.134S6.278,21,6.5,21c0.358,0,0.686,0.047,0.978,0.14
	c0.292,0.093,0.542,0.23,0.75,0.412c0.208,0.181,0.367,0.407,0.481,0.678c0.114,0.271,0.169,0.582,0.169,0.933
	c0,0.318-0.039,0.604-0.119,0.859c-0.081,0.254-0.192,0.491-0.339,0.711c-0.147,0.219-0.322,0.428-0.531,0.626
	s-0.439,0.401-0.694,0.609c-0.214,0.172-0.428,0.34-0.642,0.502c-0.214,0.163-0.406,0.322-0.575,0.477
	c-0.169,0.156-0.308,0.311-0.414,0.466c-0.106,0.156-0.158,0.312-0.158,0.469v0.027H9V29z"></path>
<path style="fill:#B08159;" d="M31,29.584v-1.177c0.539,0.399,1.145,0.599,1.822,0.599c0.551,0,0.989-0.117,1.318-0.351
	c0.329-0.234,0.493-0.551,0.493-0.95c0-0.878-0.718-1.317-2.151-1.317h-0.64v-1.004h0.611c1.272,0,1.909-0.414,1.909-1.242
	c0-0.763-0.496-1.144-1.488-1.144c-0.554,0-1.076,0.186-1.563,0.556v-1.112C31.874,22.148,32.537,22,33.301,22
	c0.735,0,1.324,0.173,1.765,0.518c0.441,0.345,0.663,0.788,0.663,1.328c0,1.018-0.554,1.673-1.661,1.965v0.022
	c0.597,0.054,1.067,0.249,1.413,0.586C35.827,26.755,36,27.175,36,27.679c0,0.694-0.28,1.255-0.836,1.682
	C34.607,29.787,33.872,30,32.961,30C32.142,30,31.487,29.862,31,29.584z"></path>
</svg>