<?xml version="1.0" encoding="utf-8"?>
<!-- Generator: Adobe Illustrator 21.0.2, SVG Export Plug-In . SVG Version: 6.00 Build 0)  -->
<svg version="1.1" id="Layer_1" xmlns="http://www.w3.org/2000/svg" xmlns:xlink="http://www.w3.org/1999/xlink" x="0px" y="0px"
	 viewBox="0 0 30 30" style="enable-background:new 0 0 30 30;" xml:space="preserve">
<style type="text/css">
	.st0{fill:#8BB7F0;}
	.st1{fill:#4E7AB5;}
</style>
<g>
	<g>
		<path class="st0" d="M12.3,26.2H6.4c-3.2,0-5.9-2.6-5.9-5.9V9.6c0-3.2,2.6-5.9,5.9-5.9h2.7V7H6.4C5,7,3.8,8.2,3.8,9.6v10.7
			C3.8,21.8,5,23,6.4,23h5.9v-2.6l5.1,4.2l-5.1,4.2V26.2z M20.9,26.2V23h2.7c1.5,0,2.7-1.2,2.7-2.7V9.6C26.2,8.2,25,7,23.6,7h-5.9
			v2.6l-5.1-4.2l5.1-4.2v2.6h5.9c3.2,0,5.9,2.6,5.9,5.9v10.7c0,3.2-2.6,5.9-5.9,5.9H20.9z"/>
	</g>
	<g>
		<path class="st1" d="M17.1,2.3v0.9v1.1h1.1h5.4c3,0,5.4,2.4,5.4,5.4v10.7c0,3-2.4,5.4-5.4,5.4h-2.1v-2.1h2.1
			c1.8,0,3.2-1.4,3.2-3.2V9.6c0-1.8-1.4-3.2-3.2-3.2h-5.4h-1.1v1.1v0.9l-3.7-3.1L17.1,2.3 M8.6,4.3v2.1H6.4c-1.8,0-3.2,1.4-3.2,3.2
			v10.7c0,1.8,1.4,3.2,3.2,3.2h5.4h1.1v-1.1v-0.9l3.7,3.1l-3.7,3.1v-0.9v-1.1h-1.1H6.4c-3,0-5.4-2.4-5.4-5.4V9.6
			c0-3,2.4-5.4,5.4-5.4H8.6 M18.2,0l-6.4,5.4l6.4,5.4V7.5h5.4c1.2,0,2.1,1,2.1,2.1v10.7c0,1.2-1,2.1-2.1,2.1h-3.2v4.3h3.2
			c3.6,0,6.4-2.9,6.4-6.4V9.6c0-3.6-2.9-6.4-6.4-6.4h-5.4V0L18.2,0z M9.6,3.2H6.4C2.9,3.2,0,6.1,0,9.6v10.7c0,3.6,2.9,6.4,6.4,6.4
			h5.4V30l6.4-5.4l-6.4-5.4v3.2H6.4c-1.2,0-2.1-1-2.1-2.1V9.6c0-1.2,1-2.1,2.1-2.1h3.2V3.2L9.6,3.2z"/>
	</g>
</g>
</svg>
